# xmcd
# Copyright (C) 1995-1998 Ti Kan
#
# Track frame offsets:
#       150
#       15435
#       30100
#       46554
#       64562
#       76585
#       90771
#       105290
#       119379
#       132988
#       146880
#       160697
#       174765
#       186433
#       201788
#       218012
#       247627
#
# Disc length: 4215 seconds
#
# Revision: 0
# Processed by: cddbd v1.5.2PL0 Copyright (c) Steve Scherf et al.
# Submitted via: CD-Transfer v1.0
#
DISCID=ba107511
DTITLE=X-Banaroo - Christmas World
DYEAR=05
DGENRE=
TTITLE0=Coming Home For Christmas
TTITLE1=Bling Bling Here Bling Bling There
TTITLE2=Christmas Time
TTITLE3=Feliz Navidad
TTITLE4=Let´s Go For A Ride
TTITLE5=Sweet Inspiration
TTITLE6=Only Love
TTITLE7=X-Mas Toy
TTITLE8=Let´s Keep The Fire Burning
TTITLE9=You´re My Guardian Angel
TTITLE10=The Miracle Of You
TTITLE11=Light The Fire
TTITLE12=You`re The One And Only
TTITLE13=Winter Wonderland
TTITLE14=White Chrtistmas
TTITLE15=Sleep My Baby Tonight
TTITLE16=Data Track
EXTD=
EXTT0=
EXTT1=
EXTT2=
EXTT3=
EXTT4=
EXTT5=
EXTT6=
EXTT7=
EXTT8=
EXTT9=
EXTT10=
EXTT11=
EXTT12=
EXTT13=
EXTT14=
EXTT15=
EXTT16=
PLAYORDER=
